<svg id="Capa_1" enable-background="new 0 0 510 510" height="512" viewBox="0 0 510 510" width="512" xmlns="http://www.w3.org/2000/svg"><g><path d="m0 90v420h210l10-194.708-10-225.292z" fill="#fff5f5"/><path d="m301.067 90h-91.067v420h210v-301.071z" fill="#d3dce3"/><path d="m210 417 10-162.002-10-89.998c-67.637 0-135 0-135 0v270z" fill="#629df5"/><path d="m318.825 165c-26.236 0-67.582 0-108.825 0v201.039l135 68.961v-243.835z" fill="#8165ff"/><g><circle cx="405" cy="105" fill="#e82e68" r="105"/></g><g><path d="m165 225h30v30h-30z" fill="#fce867"/></g><path d="m190.9 394.081-1.141 10.629 20.241 12.29 10-22.818-10-28.143z" fill="#34ce96"/><path d="m210 417-10 11.285 10 6.715h15l-7.5-19z" fill="#34ce96"/><path d="m345 435-90-135-45 66.039v50.961l15 18z" fill="#0baa6d"/><path d="m190.9 394.081-.094.113.094-.113-40.9-49.081-75 90h135v-18z" fill="#52fe83"/><g><path d="m458.032 73.18-21.213-21.213-31.82 31.82-31.819-31.82-21.213 21.213 31.819 31.82-31.819 31.82 21.213 21.213 31.819-31.82 31.82 31.82 21.213-21.213-31.819-31.82z" fill="#fff5f5"/></g></g></svg>