<svg enable-background="new 0 0 36 36" height="512" viewBox="0 0 36 36" width="512" xmlns="http://www.w3.org/2000/svg"><path d="m8.114 5.564c-1.805 6.677-6.504 10.327-7.374 13.545s-.847 10.475 13.955 14.477 19.432-4.501 20.388-8.041c4.481-16.572-23.772-31.807-26.969-19.981z" fill="#efefef"/><path d="m7.75 13.25v11c0 .55.45 1 1 1h13.5c1.105 0 2-.895 2-2v-10z" fill="#f3f3f1"/><g fill="#2fdf84"><path d="m6.75 9.75h18.5v3.5h-18.5z"/><path d="m22.5 6.75h-13l-2.75 3h18.5z"/><circle cx="23.5" cy="23.5" r="5.75"/></g><path d="m10 24.25v-11h-2.25v11c0 .55.45 1 1 1h2.25c-.55 0-1-.45-1-1z" fill="#d5dbe1"/><path d="m6.75 9.75h2.25v3.5h-2.25z" fill="#00b871"/><path d="m9.5 6.75-2.75 3h2.25l2.75-3z" fill="#00b871"/><path d="m20 23.5c0-2.79 1.988-5.115 4.625-5.638-.364-.072-.74-.112-1.125-.112-3.176 0-5.75 2.574-5.75 5.75s2.574 5.75 5.75 5.75c.385 0 .761-.039 1.125-.112-2.637-.523-4.625-2.848-4.625-5.638z" fill="#00b871"/><g fill="#a4afc1"><path d="m14.704 31.25c-.827 0-1.5-.673-1.5-1.5s.673-1.5 1.5-1.5 1.5.673 1.5 1.5-.673 1.5-1.5 1.5zm0-2c-.276 0-.5.225-.5.5s.224.5.5.5.5-.225.5-.5-.225-.5-.5-.5z"/><path d="m4.394 2.355h1v2h-1z" transform="matrix(.707 -.707 .707 .707 -.939 4.444)"/><path d="m3.717 6.922h2v1h-2z" transform="matrix(.707 -.707 .707 .707 -3.867 5.509)"/><path d="m7.783 2.856h2v1h-2z" transform="matrix(.707 -.707 .707 .707 .2 7.193)"/></g><path d="m24.25 25.25h-1.5v-.24c0-.968.483-1.895 1.327-2.542.265-.203.423-.534.423-.885 0-.597-.449-1.083-1-1.083s-1 .486-1 1.083h-1.5c0-1.424 1.122-2.583 2.5-2.583s2.5 1.159 2.5 2.583c0 .813-.377 1.59-1.01 2.074-.276.213-.74.671-.74 1.353z"/><path d="m23.5 30c-3.584 0-6.5-2.916-6.5-6.5s2.916-6.5 6.5-6.5 6.5 2.916 6.5 6.5-2.916 6.5-6.5 6.5zm0-11.5c-2.757 0-5 2.243-5 5s2.243 5 5 5 5-2.243 5-5-2.243-5-5-5z"/><path d="m15.25 26h-6.5c-.965 0-1.75-.785-1.75-1.75v-11c0-.414.336-.75.75-.75h16.5c.414 0 .75.336.75.75v2h-1.5v-1.25h-15v10.25c0 .136.114.25.25.25h6.5z"/><path d="m13.75 15.5h4.5v1.5h-4.5z"/><path d="m25.25 14h-18.5c-.414 0-.75-.336-.75-.75v-3.5c0-.414.336-.75.75-.75h18.5c.414 0 .75.336.75.75v3.5c0 .414-.336.75-.75.75zm-17.75-1.5h17v-2h-17z"/><path d="m24.697 10.257-2.527-2.757h-12.34l-2.527 2.757-1.106-1.014 2.75-3c.142-.155.343-.243.553-.243h13c.21 0 .411.088.553.243l2.75 3z"/><path d="m23.5 28c-.2 0-.39-.08-.53-.22-.14-.141-.22-.33-.22-.53 0-.101.02-.2.06-.29s.09-.17.16-.24c.2-.21.54-.28.82-.16.09.04.17.09.24.16s.12.15.16.24.06.189.06.29c0 .2-.08.39-.22.53s-.33.22-.53.22z"/></svg>