<svg id="_x31__x2C_5" enable-background="new 0 0 36 36" height="512" viewBox="0 0 36 36" width="512" xmlns="http://www.w3.org/2000/svg"><g><path d="m4.167 8.377c0 6.917-3.583 11.667-3.583 15s1.916 10.333 17.249 10.333 17.583-9.417 17.583-13.083c.001-17.167-31.249-24.5-31.249-12.25z" fill="#efefef"/></g><g><g><path d="m29.856 6.467h2v1h-2z" fill="#a4afc1" transform="matrix(.707 -.707 .707 .707 4.111 23.859)"/></g><g><path d="m30.533 10.033h1v2h-1z" fill="#a4afc1" transform="matrix(.707 -.707 .707 .707 1.286 25.17)"/></g><g><path d="m26.467 5.967h1v2h-1z" fill="#a4afc1" transform="matrix(.707 -.707 .707 .707 2.97 21.105)"/></g></g><g><path d="m20.277 26.25h-11.527c-1.1 0-2-.9-2-2v-15.5c0-1.1.9-2 2-2h11.5c1.1 0 2 .9 2 2l.027 15.497c.001 1.105-.895 2.003-2 2.003z" fill="#f3f3f1"/></g><g><circle cx="14.5" cy="11" fill="#2fdf84" r="1.25"/></g><g><path d="m17.75 18v-1.25c0-1.105-.895-2-2-2h-2.5c-1.105 0-2 .895-2 2v1.25z" fill="#2fdf84"/></g><g><circle cx="23.5" cy="23.5" fill="#2fdf84" r="5.75"/></g><g><path d="m9 24.25v-15.5c0-1.1.9-2 2-2h-2.25c-1.1 0-2 .9-2 2v15.5c0 1.1.9 2 2 2h2.25c-1.1 0-2-.9-2-2z" fill="#d5dbe1"/></g><g><path d="m15.5 11c0-.19.049-.365.125-.526-.2-.425-.625-.724-1.125-.724-.69 0-1.25.56-1.25 1.25s.56 1.25 1.25 1.25c.5 0 .925-.299 1.125-.724-.076-.161-.125-.336-.125-.526z" fill="#00b871"/></g><g><path d="m15.5 14.75h-2.25c-1.105 0-2 .895-2 2v1.25h2.25v-1.25c0-1.105.895-2 2-2z" fill="#00b871"/></g><g><path d="m20 23.5c0-2.79 1.988-5.115 4.625-5.638-.364-.072-.74-.112-1.125-.112-3.176 0-5.75 2.574-5.75 5.75s2.574 5.75 5.75 5.75c.385 0 .761-.039 1.125-.112-2.637-.523-4.625-2.848-4.625-5.638z" fill="#00b871"/></g><g><path d="m23.5 30c-3.584 0-6.5-2.916-6.5-6.5s2.916-6.5 6.5-6.5 6.5 2.916 6.5 6.5-2.916 6.5-6.5 6.5zm0-11.5c-2.757 0-5 2.243-5 5s2.243 5 5 5 5-2.243 5-5-2.243-5-5-5z"/></g><g><path d="m24.25 25.259h-1.5c0-.967.483-1.894 1.326-2.541.266-.204.424-.534.424-.885 0-.598-.448-1.083-1-1.083s-1 .486-1 1.083h-1.5c0-1.424 1.121-2.583 2.5-2.583s2.5 1.159 2.5 2.583c0 .813-.378 1.589-1.01 2.075-.276.212-.74.67-.74 1.351z"/></g><g><path d="m14.5 13c-1.103 0-2-.897-2-2s.897-2 2-2 2 .897 2 2-.897 2-2 2zm0-2.5c-.275 0-.5.224-.5.5s.225.5.5.5.5-.224.5-.5-.225-.5-.5-.5z"/></g><g><path d="m18.5 18h-1.5v-1.25c0-.689-.561-1.25-1.25-1.25h-2.5c-.689 0-1.25.561-1.25 1.25v1.25h-1.5v-1.25c0-1.517 1.233-2.75 2.75-2.75h2.5c1.517 0 2.75 1.233 2.75 2.75z"/></g><g><path d="m10 22.5h5v1.5h-5z"/></g><g><path d="m15 27h-6.25c-1.517 0-2.75-1.233-2.75-2.75v-15.5c0-1.517 1.233-2.75 2.75-2.75h11.5c1.517 0 2.75 1.233 2.75 2.75v6.31h-1.5v-6.31c0-.689-.561-1.25-1.25-1.25h-11.5c-.689 0-1.25.561-1.25 1.25v15.5c0 .689.561 1.25 1.25 1.25h6.25z"/></g><g><circle cx="23.5" cy="27.25" r=".75"/></g><g><path d="m10 19.5h6v1.5h-6z"/></g></svg>